<?xml version="1.0" encoding="UTF-8"?><svg id="Layer_1" xmlns="http://www.w3.org/2000/svg" viewBox="0 0 1024 1024"><rect width="1024" height="1024" style="fill:#4f378b; stroke:#000; stroke-miterlimit:10;"/><path d="M745.76,917.88l-51.95.03c-4.9,0-8.88-3.97-8.89-8.87l-.23-216.1c0-5.14-7.24-7.68-10.74-7.69-3.87-.01-7.6,1.75-9.75,5.37-.78,1.31-1.13,2.83-1.13,4.35l-.1,214c0,4.9-3.98,8.88-8.88,8.88l-246.71.03c-4.9,0-8.88-3.97-8.88-8.88l-.16-258.48c0-4.26-3.03-7.92-7.22-8.72l-12.29-2.34-24.74-4.75-34.13-6.2-16.36-3.05-30.37-5.78-18.54-3.5c-8.5-1.6-17.29-3.22-24.18-8.47-6.3-4.81-12.23-10.25-15.29-17.48-6.57-15.53-4.17-33.11,6.89-45.64.15-.17.31-.34.47-.5l13.97-13.91c.11-.11.23-.22.35-.33l15.87-14.2,15.51-14.73,17.28-15.42,36.69-33.68,11.16-10.24,12.59-11.89,5.22-4.72c.85-.77,3.19-1.96,4.3-1.91,1.28.06,3.27,1.42,4.45,2.6l9.5,9.47,24.86,24.94c1.55,1.56,3.28,2.89,4.88,4.32,3.94,3.54,3.74,9.75-.24,13.25-.17.15-.33.29-.48.43l-11.44,10.75-8.59,7.87-25.76,24.88-17.97,17.33c-1.03.99-2.74,4.84-.82,5.18l43.21,7.76,13.24,2.2,35.15,5.8c11.23,1.85,21.95,4.84,33.64,4.85l184.48.04,13.57-.02c5.76,0,11.29.3,16.74,1.99l17.03,5.27c12,3.71,21.73,11.31,30.98,19.92,9.84,9.15,17.89,20.15,22.84,32.87,4.29,11.01,8.84,22.3,8.86,34.69l.34,240.95c0,.41.03.83.09,1.24.36,2.51.53,4.77.57,7.13.09,4.99-3.89,9.11-8.88,9.11Z" style="fill:#fff;"/><path d="M516.73,340.04l-14.34.89-8.72.92-10.53,1.77-9.47,1.76-12.88,2.79-18.04,5.96-.68-11.32-1.85-18.59-4.24-49.11-2.53-27.08-1.06-12.23c-.55-6.3-.68-12.51,5.23-16.79,4.57-3.31,10.36-5.8,16.09-7.48,7.15-2.1,14.25-4.28,21.73-5.21l14.76-1.83,13.04-1.04,15.23-.65c.5-4.86.09-10.71-.47-16.05l-1.65-15.64-2.08-19.92-1.89-18.57-1.93-20.44c-.51-5.35,3.18-9.21,8.36-9.2l36.81.07c2.08.62,5.95,3.77,6.43,5.83.76,3.26.07,7.41-.25,10.56l-1.52,14.93-1.1,12.1-1.73,15.63-2.45,21.22-1.83,18.42,20.48,1.91,6.93.57c15.24,1.25,29.78,4.09,44.51,8.86l5.83,2.82c8.07,3.9,11.35,10.61,10.57,18.81l-6.48,68.18-1.8,16.99-3.13,34.1c-13.33-5.08-25.97-8.93-40.01-10.8l-8.69-1.16-22.4-2.15-9.16-.61h-22.71s-10.36.76-10.36.76Z" style="fill:#fff;"/><path d="M634.76,437.07c2.05,12.4-.37,25.03-3.91,36.71l-6.72,16.28c-3.56,8.63-9.26,15.31-15.56,22.19-7.65,8.35-16.88,14.29-26.91,19.82-14.44,7.97-38.68,12.94-54.65,10.11l-15.42-2.73c-9.14-1.62-16.55-6.08-24.59-10.63-16.73-9.47-30.28-23.72-38.24-41.2-6.11-13.43-9.5-26.6-9.16-41.22l.16-6.89,2.06-14.47c1.15-8.08,4.11-15.69,9.17-22.33,10.76,3.96,20.74,8.67,31.88,10.65l15.34,2.73,13.83,1.65,13.76.96,24,.1,9.17-.64,10.39-1.07,8.35-1.47c10.17-1.8,20.26-3.95,29.81-7.59l15.42-5.88c3.48,4.81,5.83,9.12,7.26,14.62l3.38,13.04,1.2,7.27Z" style="fill:#fff;"/><path d="M545.42,400.75c-3.48.31-6.34.09-9.51-.03l-15.25-.55-21.45-2.22-17.38-3.03c-11.76-2.05-22.25-6.87-32.96-12.23-3.36-1.68-7.46-7.77-3.26-10.54,3.75-2.48,9.75-4.33,14.22-5.35l13.35-3.06,22.61-3.44,10.79-.76,8.18-.94h49.11s10.36,1.03,10.36,1.03l18.45,2.61c11.02,1.56,21.37,3.7,31.78,7.64,2.18.82,4.21,2.97,4.45,4.64.39,2.73-.61,5.6-3.05,6.85l-14.17,7.23c-5.04,2.57-10.29,4.33-15.87,5.35l-18.01,3.33-11.56,1.54-12.14,1.15-8.69.78Z" style="fill:#fff;"/></svg>